<svg width="237" height="225" viewBox="0 0 237 225" fill="none" xmlns="http://www.w3.org/2000/svg">
<path d="M206 62L27 62" stroke="#0C0C0C" stroke-width="33" stroke-linecap="round"/>
<path d="M213 134L34 134" stroke="#0C0C0C" stroke-width="33" stroke-linecap="round"/>
<path d="M33.5 17C33.5 7.8873 26.1127 0.5 17 0.5C7.8873 0.5 0.5 7.8873 0.5 17L17 17L33.5 17ZM0.499992 204L0.499991 220.5L33.5 220.5L33.5 204L17 204L0.499992 204ZM17 17L0.5 17L0.499992 204L17 204L33.5 204L33.5 17L17 17Z" fill="#0C0C0C"/>
<path d="M236.5 21C236.5 11.8873 229.113 4.5 220 4.5C210.887 4.5 203.5 11.8873 203.5 21L220 21L236.5 21ZM203.5 208L203.5 224.5L236.5 224.5L236.5 208L220 208L203.5 208ZM220 21L203.5 21L203.5 208L220 208L236.5 208L236.5 21L220 21Z" fill="#0C0C0C"/>
</svg>
