<svg width="123" height="32" viewBox="0 0 123 32" fill="none" xmlns="http://www.w3.org/2000/svg">
<path d="M111.085 10.1863C111.182 10.0766 111.375 9.98001 111.499 9.86235C112.018 9.3692 112.232 9.21258 112.676 8.75641C112.843 8.58214 113.081 8.30856 113.329 7.9941L113.295 8.0411C114.057 6.80391 115.558 5.87233 115.727 6.13776C115.727 6.13777 115.727 6.13778 115.727 6.13779C115.73 6.14131 115.732 6.14506 115.734 6.14903C115.776 6.22444 115.632 6.45269 115.663 6.55159C115.694 6.65152 116.097 7.12866 115.856 7.36877C115.478 7.70351 114.615 8.38529 114.497 8.63539C114.469 8.67993 114.442 8.731 114.414 8.78708L114.394 8.81525C114.316 8.9481 114.233 9.10031 114.128 9.23951C113.64 9.87414 113.324 10.1437 112.935 10.7595C112.677 10.9037 112.418 11.043 112.16 11.1788C111.922 11.4606 111.447 11.7605 111.291 11.9156C111.163 12.0433 111.13 12.1628 110.997 12.2937C110.847 12.4412 110.565 12.6129 110.304 12.8868C109.877 13.338 109.929 13.5337 109.704 13.8152C109.578 13.9746 109.392 14.1604 109.222 14.3665L109.113 14.4783C108.914 14.6209 108.712 14.7725 108.545 14.9337C108.506 14.9868 108.467 15.04 108.427 15.0932C108.489 15.099 108.551 15.1047 108.612 15.1104C108.42 15.2811 108.281 15.2783 108.092 15.4177C107.87 15.5808 107.805 15.7296 107.654 15.8391C107.531 15.9285 107.325 15.9969 107.167 16.1145C106.936 16.2861 107.042 16.3263 106.925 16.4301C106.88 16.4737 105.968 17.1649 105.912 17.1996C105.506 17.476 105.399 17.3915 105.066 17.5953C104.14 18.1597 103.243 18.8263 102.387 19.3581C102.005 19.5957 101.59 19.8159 101.184 20.0086C101.649 19.3874 100.157 19.8881 100.911 20.0737C100.436 20.2398 100.183 20.5238 99.7468 20.7112C99.6991 20.7316 99.6532 20.7493 99.6078 20.7654C99.391 20.842 99.1855 20.8873 98.8664 21.0444C98.1851 21.3814 97.5136 21.9289 97.1567 21.6897C96.3699 22.134 95.6008 22.3282 95.4302 22.7556C95.2222 22.8685 94.5949 22.9234 94.3427 22.997C94.1068 23.0776 92.2986 23.6689 91.9999 23.755C91.7052 23.8524 91.186 24.0177 90.9454 24.1227C90.6422 24.2546 90.5174 24.6472 89.8427 24.432C89.2648 24.6259 89.0141 24.6855 88.5185 24.7764C88.4607 24.7868 88.3997 24.7976 88.3348 24.8092C88.2228 24.829 88.1962 24.7755 88.1323 24.7917C88.0004 24.8253 87.7905 24.9237 87.5546 24.9902C87.1718 25.0983 86.921 25.0374 87.0113 25.2078C86.7626 25.3058 86.5232 25.4019 86.2739 25.5012C86.1752 25.4901 86.077 25.479 85.9792 25.4678C85.8562 25.5418 85.7283 25.6174 85.6032 25.6924C85.6906 25.3865 84.7803 25.8023 85.1314 25.8677C84.6245 25.9489 84.1242 26.0304 83.6146 26.1165C83.6002 25.7988 82.5299 26.3893 82.672 26.5238C82.6157 26.5398 82.5596 26.5557 82.5038 26.5716C81.9905 26.6346 81.5599 26.8302 80.9459 26.9531C80.3339 27.0756 80.3793 27.0311 80.1596 26.9476C80.0195 26.9973 79.8806 27.0467 79.7434 27.0956C79.1132 27.6865 79.0548 27.0035 77.8704 27.6565C77.3971 27.5382 76.4292 27.9447 75.7772 28.1876C75.7007 28.2161 75.7108 28.2627 75.6097 28.3034C75.3655 28.4035 74.6924 28.4997 74.75 28.6426C74.5111 28.6518 74.2733 28.6584 74.0343 28.6621C73.8532 28.7277 73.6695 28.7917 73.4839 28.8535C73.4934 28.9004 73.5029 28.9473 73.5123 28.9942C73.3312 28.9544 73.1147 28.9626 72.9049 28.9818C72.6509 29.0041 72.3988 29.0571 72.2336 29.0637C72.1742 29.0661 72.1518 29.0028 71.9722 29.0168C71.7588 29.0333 71.3756 29.1255 71.1268 29.1531C71.0447 29.2435 70.9595 29.3347 70.8799 29.4249C70.4435 29.5515 70.2523 29.3934 69.9872 29.431C69.9424 29.4375 69.0847 29.6229 69.0392 29.6358C68.6682 29.7415 68.808 29.8851 67.6993 30.0597C67.4979 30.091 67.3355 30.0631 67.155 30.0937C66.8412 30.1483 65.9181 30.4388 65.8581 30.5684C65.4564 30.4861 64.4353 30.7066 64.1286 30.7058C64.0358 30.7057 63.9967 30.6157 63.718 30.6345C63.4889 30.6504 62.9147 30.8039 62.6208 30.8273C62.3114 30.8519 62.1956 30.785 62.0564 30.7959C61.9262 30.8059 61.8094 30.8844 61.6357 30.9035C61.0824 30.9634 60.5721 30.9103 60.1331 30.9491C59.5028 31.0045 58.9567 31.2394 58.4316 31.3617C58.2996 31.3586 58.1673 31.3267 58.028 31.3355C56.3171 31.4442 54.379 31.4735 52.6666 31.4398C52.5222 31.4371 52.3379 31.4264 52.1348 31.4127C51.2386 31.351 49.9927 31.2354 50.4235 31.5912C50.1502 31.6666 48.1421 31.4795 47.7648 31.473C47.3799 31.4672 47.084 31.5421 46.7807 31.5404C45.8786 31.5352 45.2435 31.4727 44.1432 31.5271C43.8586 31.5413 43.5534 31.6294 43.3855 31.6262C43.1831 31.6221 42.9653 31.5305 42.7037 31.5214C42.078 31.5005 40.9129 31.5131 40.3128 31.4884C40.2033 31.4838 40.166 31.4052 40.0099 31.3784C39.4009 31.2738 38.7176 31.2708 38.8342 31.5217C38.0563 31.3676 37.3278 31.4838 36.6043 31.4784C35.0749 31.4674 32.2792 31.3502 30.942 31.4196C30.2455 31.4566 30.1315 31.5402 29.4087 31.4917C29.2578 31.4816 29.0838 31.4662 28.8815 31.444C28.5999 31.4143 28.3317 31.3774 27.9988 31.3415C27.2217 31.2572 26.504 31.0264 25.9022 31.2522C25.0354 31.1544 24.3327 31.169 23.6924 30.9151C23.6165 30.9613 23.5282 31.0064 23.4512 31.052C23.339 31.0452 23.2303 31.038 23.1212 31.0299C23.0898 30.9785 23.0596 30.927 23.0305 30.8755C22.7038 30.8404 22.3088 30.8261 21.9226 30.7806C21.4312 30.7303 20.9263 30.6792 20.5627 30.5875C19.4873 30.3385 16.7994 29.4369 15.8519 29.0172C15.341 28.8006 15.2818 28.8885 15.058 28.5793C14.9371 28.5509 14.8146 28.5215 14.696 28.4932C14.608 28.5104 14.5196 28.5273 14.4309 28.5439C13.7671 28.2963 13.016 27.9188 12.396 27.6601C11.2631 27.1943 9.53288 26.5459 8.46828 25.9166C8.19817 25.7586 7.90265 25.5005 7.63203 25.3619C7.24095 25.1608 7.07328 25.2547 6.57739 24.9925C5.72162 24.5445 4.26392 23.4898 3.48572 23.022C3.25455 22.8848 3.11601 22.8687 2.95409 22.7749C2.27714 22.3825 1.74294 22.0286 1.06731 21.6839C0.488424 21.1047 0.658861 20.9769 0.57051 20.6721C0.502927 20.4414 0.238925 19.8235 0.251116 19.6683C0.259286 19.5597 0.501599 19.5866 0.496584 19.457C1.31207 19.9394 1.58516 20.2343 2.1437 20.782C3.3271 21.564 4.53731 22.3045 5.77018 23.003C5.8551 23.1159 5.94023 23.2285 6.02554 23.3407C6.02548 23.3409 6.02542 23.341 6.02536 23.3411C6.46837 23.6642 6.74405 23.65 7.01685 23.7611C9.61069 24.8721 14.5689 27.3148 17.5308 28.2523C18.1604 28.4771 20.26 29.0026 20.6814 29.1906C20.792 29.2431 20.8033 29.3348 20.9249 29.3688C21.3377 29.4513 21.7643 29.5307 22.1763 29.5993C22.8127 29.7059 23.5134 29.7059 24.2115 29.7162C25.9192 29.9048 27.6904 29.9196 29.4537 29.9391C30.0694 29.9452 30.6852 29.95 31.3013 29.9599C37.6709 30.0553 43.9831 30.0812 50.2443 30.1372C50.8289 30.1418 51.4827 30.1301 52.1353 30.12C52.8486 30.1092 53.5533 30.0938 54.1616 30.1023C54.6603 30.1082 54.8566 30.242 55.5064 30.1158C55.5145 30.1528 55.5227 30.1898 55.5308 30.2268C56.0864 30.1607 56.4491 30.0598 57.0773 30.0169C57.604 29.984 59.0129 29.8785 59.4771 29.8497C59.7221 29.8356 59.6375 29.913 59.8635 29.8924C60.2459 29.8576 61.0712 29.6784 61.598 29.6174C62.0853 29.5631 62.902 29.5405 63.2731 29.4772C64.5993 29.2557 66.027 28.9006 67.4417 28.6664C67.8329 28.6024 68.351 28.5934 68.4736 28.5667C68.7141 28.5142 68.7639 28.4149 68.9235 28.3717C69.7305 28.1541 71.0198 27.9957 71.8431 27.8542C72.129 27.8046 72.4222 27.7559 72.7131 27.7123C74.9999 27.3583 77.3842 26.5736 79.6543 25.9305C81.262 25.464 83.9419 24.6722 85.4602 24.3348C85.7863 24.2614 85.724 24.3778 85.9962 24.3048C86.3016 24.2231 86.4416 24.1191 86.5829 24.0764C86.9865 23.9542 87.5817 23.7784 88.2222 23.6027C89.1048 23.3618 90.0349 23.08 90.5675 22.9512C90.7395 22.9102 90.887 22.9415 90.988 22.9082C91.0393 22.8915 91.1383 22.805 91.2979 22.7459C92.6966 22.2222 93.7207 21.8495 95.0738 21.2774C96.3182 20.7497 97.6208 20.0938 98.9611 19.4284C100.386 18.7237 101.793 17.9236 103.117 17.1426C103.671 16.8155 104.123 16.7002 104.199 16.6499C104.365 16.5392 104.418 16.3864 104.74 16.1437C105.814 15.3412 107.34 14.3719 108.308 13.5424C108.321 13.5308 108.335 13.519 108.349 13.507L108.233 13.6258C108.616 13.0584 109.142 12.3397 109.569 11.885C109.921 11.5055 110.819 10.7346 110.937 10.5434C111.01 10.4267 110.98 10.3061 111.085 10.1863ZM98.4182 21.1694C98.4241 20.9745 97.6389 21.5139 97.9977 21.4438C98.0791 21.428 98.4175 21.2199 98.4182 21.1694ZM55.7254 31.1521C55.7359 31.2012 55.7464 31.2503 55.7569 31.2994C55.8795 31.274 55.9981 31.2485 56.1238 31.2225C56.0521 31.1958 55.9809 31.169 55.9117 31.1421C55.8498 31.1455 55.7877 31.1488 55.7254 31.1521Z" fill="white"/>
<path d="M122.498 15.4121C122.51 15.4506 122.446 15.5051 122.442 15.5506C122.427 15.7413 122.382 15.8122 122.357 15.9846C122.319 16.2408 122.404 16.9998 121.954 17C121.954 17 121.954 17 121.954 17C121.949 17 121.945 16.9999 121.94 16.9998C121.854 16.9971 121.761 16.9325 121.664 16.9229C121.566 16.9133 120.94 16.9205 120.904 16.8287C120.858 16.6958 121.019 16.3766 121.011 16.3058C121.007 16.2574 120.95 16.1978 120.939 16.1357C120.907 15.9355 120.948 15.8314 120.794 15.651C120.875 15.5789 120.957 15.5069 121.038 15.435C121 15.3409 121.108 15.1983 121.102 15.1413C121.097 15.0945 121.033 15.0671 121.03 15.0184C121.026 14.9635 121.095 14.8792 121.085 14.7797C121.068 14.6167 120.9 14.5876 120.878 14.4895C120.856 14.3878 120.947 14.2304 120.888 14.1004C120.869 14.0841 120.851 14.0679 120.832 14.0516C120.79 14.0633 120.749 14.075 120.707 14.0867C120.687 14.0215 120.773 13.9933 120.774 13.9334C120.776 13.8631 120.695 13.8271 120.695 13.7795C120.695 13.7405 120.761 13.6876 120.756 13.6372C120.751 13.5638 120.657 13.58 120.639 13.5405C120.632 13.5253 120.579 13.2326 120.579 13.2165C120.575 13.0916 120.704 13.0803 120.715 12.9802C120.745 12.7034 120.64 12.4201 120.6 12.1633C120.582 12.0492 120.589 11.9301 120.609 11.8157C120.94 11.9942 121.195 11.5957 120.679 11.7463C120.752 11.6198 120.612 11.5297 120.635 11.4095C120.65 11.3315 120.722 11.2786 120.719 11.1666C120.714 10.9694 120.51 10.7554 120.877 10.6964C120.811 10.4671 120.943 10.2637 120.618 10.184C120.597 10.124 120.79 9.96958 120.815 9.90298C120.84 9.83965 120.923 9.35319 120.927 9.27401C120.931 9.19567 120.934 9.05511 120.905 8.98898C120.869 8.90563 120.532 8.8514 120.924 8.69662C120.89 8.52432 120.9 8.46075 120.943 8.29925C120.951 8.27004 121.01 8.26594 121.009 8.24899C121.009 8.21457 120.965 8.15384 120.959 8.0912C120.949 7.98789 121.071 7.92783 120.883 7.94217C120.85 7.87487 120.818 7.80613 120.785 7.73898C120.821 7.71455 120.857 7.69018 120.893 7.66586C120.852 7.63068 120.812 7.59468 120.772 7.55872C121.045 7.59636 120.88 7.34319 120.725 7.42926C120.779 7.29877 120.832 7.16212 120.886 7.03115C121.195 7.04201 120.915 6.74022 120.748 6.771C120.747 6.75584 120.747 6.7405 120.747 6.72531C120.826 6.59041 120.756 6.47207 120.806 6.30982C120.857 6.14916 120.887 6.16124 121.028 6.10845C121.019 6.07083 121.009 6.03351 121 5.99649C120.989 5.99143 120.979 5.98652 120.97 5.98176C120.641 5.80969 121.271 5.81322 120.968 5.49422C121.209 5.37391 121.069 5.11396 120.986 4.93953C120.976 4.91947 120.929 4.92146 120.913 4.89515C120.875 4.831 120.926 4.65603 120.773 4.67153C120.814 4.61012 120.855 4.54778 120.896 4.48722C120.865 4.44212 120.834 4.39375 120.803 4.3484C120.755 4.35183 120.708 4.35526 120.66 4.35868C120.816 4.25296 120.743 4.10654 120.775 4.02821C120.782 4.01284 120.848 4.0042 120.862 3.95719C120.879 3.90224 120.851 3.80302 120.865 3.73775C120.79 3.71943 120.715 3.70171 120.64 3.68461C120.589 3.57783 120.776 3.51669 120.784 3.44935C120.786 3.436 120.745 3.22196 120.739 3.21197C120.693 3.1222 120.537 3.1696 120.528 2.9035C120.526 2.85757 120.575 2.80814 120.569 2.76706C120.559 2.68999 120.383 2.50999 120.264 2.53154C120.388 2.41149 120.263 2.23732 120.281 2.17804C120.286 2.15793 120.372 2.11494 120.367 2.05967C120.363 2.01818 120.269 1.97584 120.241 1.94447L120.45 2.12584C120.444 2.12283 120.438 2.11946 120.434 2.11563C120.384 2.0745 120.398 1.99306 120.374 1.97536C120.35 1.9589 120.301 2.00755 120.268 1.99308C120.164 1.94739 120.096 1.81579 120.002 1.78841C119.867 1.74858 119.71 1.9144 119.594 1.98477C119.569 1.96905 119.547 1.92523 119.518 1.9219C119.163 1.87741 118.716 1.87339 118.291 1.88923C118.097 1.89436 117.554 1.7171 117.754 2.1235C117.726 2.16485 117.585 2.16463 117.432 2.15441C117.277 2.14242 117.101 2.12028 117.053 2.12578C116.956 2.13709 116.883 2.22566 116.809 2.23722C116.576 2.27309 116.403 2.24036 116.127 2.34455C116.056 2.37159 115.988 2.47292 115.944 2.47754C115.889 2.48298 115.824 2.40172 115.755 2.40469C115.59 2.41275 115.292 2.47821 115.133 2.48122C115.105 2.48154 115.086 2.40525 115.043 2.38574C114.874 2.30954 114.696 2.33769 114.756 2.58152C114.538 2.46366 114.363 2.61228 114.175 2.63976C113.777 2.69831 113.045 2.70842 112.704 2.84107C112.491 2.92488 112.502 3.03638 112.172 2.96513C112.098 2.94929 112.024 2.92591 111.934 2.90686C111.726 2.86183 111.524 2.66871 111.385 2.92674C111.154 2.87693 110.974 2.93325 110.794 2.73027C110.777 2.78227 110.76 2.83427 110.743 2.88626C110.715 2.88903 110.687 2.89179 110.659 2.89452C110.648 2.84643 110.637 2.79833 110.625 2.75023C110.425 2.74769 110.181 2.95915 110.011 2.96476C109.727 2.97572 108.992 2.92061 108.721 2.85876C108.577 2.82655 108.571 2.93069 108.486 2.71787C108.455 2.73321 108.423 2.74853 108.391 2.76382C108.372 2.81094 108.352 2.85805 108.333 2.90515C108.149 2.90916 107.931 2.8375 107.756 2.8381C107.437 2.83991 106.955 2.96297 106.636 2.86949C106.555 2.84607 106.458 2.74655 106.379 2.74511C106.265 2.74286 106.231 2.90229 106.085 2.89965C105.833 2.89532 105.376 2.68489 105.138 2.68288C105.067 2.68238 105.03 2.73966 104.981 2.74264C104.776 2.75564 104.608 2.7375 104.404 2.81233C104.206 2.64039 104.244 2.44409 104.198 2.23874C104.164 2.08369 104.052 1.72043 104.045 1.58662C104.041 1.49265 104.107 1.37923 104.097 1.27533C104.344 1.21833 104.437 1.31697 104.62 1.47719C104.984 1.50208 105.348 1.52047 105.713 1.53328C105.743 1.59076 105.774 1.64821 105.804 1.70562C105.804 1.70574 105.804 1.70586 105.804 1.70598C105.942 1.7771 106.008 1.63577 106.085 1.60626C106.819 1.32885 108.237 1.58056 109.042 1.59034C109.216 1.59425 109.774 1.49972 109.896 1.5848C109.928 1.60715 109.94 1.69287 109.973 1.69524C110.263 1.63167 110.553 1.56593 110.841 1.49818C111.449 1.59765 112.062 1.44283 112.663 1.37103C114.201 1.18693 115.717 0.945053 117.22 0.732158C117.308 0.719699 117.397 0.706985 117.486 0.694376C117.795 0.650743 118.198 0.524014 118.537 0.535569C118.679 0.540521 118.744 0.673388 118.926 0.562199C118.929 0.599365 118.933 0.636533 118.936 0.673704C119.095 0.623246 119.202 0.536945 119.394 0.536045C119.553 0.530238 119.992 0.580338 120.134 0.633325C120.208 0.657576 120.164 0.71864 120.233 0.735497C120.349 0.761997 120.632 0.751724 120.794 0.823381C120.872 0.856831 120.968 0.927629 121.053 0.995666L121.275 1.18813C121.326 1.28595 121.363 1.37639 121.397 1.42699C121.665 1.82731 121.88 2.2457 121.923 2.6578C121.935 2.77387 121.866 2.92797 121.873 2.96122C121.888 3.02771 121.978 3.03588 121.995 3.07908C122.083 3.30218 122.014 3.66474 122.027 3.88179C122.069 4.5668 122.133 5.27292 122.143 5.94421C122.144 5.97053 122.144 5.99693 122.144 6.02341C122.148 6.46197 122.18 7.18636 122.121 7.59112C122.108 7.67752 122.011 7.65608 122.013 7.72869C122.014 7.80933 122.08 7.85246 122.085 7.8905C122.127 8.15004 122.2 8.72638 122.136 8.97329C122.124 9.02029 122.049 9.05526 122.05 9.08346C122.05 9.0977 122.101 9.12961 122.107 9.17435C122.158 9.56768 122.13 9.85477 122.115 10.2415C122.087 10.9808 122.187 11.837 122.137 12.6129C122.126 12.7828 121.977 12.8979 121.979 12.9219C121.982 12.9741 122.082 13.0075 122.107 13.1132C122.189 13.4641 122.083 13.9371 122.134 14.2715C122.158 14.4359 122.286 14.6634 122.314 14.8254C122.337 14.9553 122.287 15.2613 122.343 15.3189C122.376 15.354 122.485 15.3701 122.498 15.4121ZM120.802 11.0478C120.976 11.0697 120.83 10.8291 120.738 10.9201C120.717 10.9406 120.757 11.042 120.802 11.0478ZM119.01 1.60369C119.014 1.65308 119.018 1.70247 119.021 1.75187C119.049 1.73043 119.078 1.70924 119.106 1.68832C119.09 1.65876 119.073 1.6293 119.055 1.59993C119.04 1.60111 119.025 1.60237 119.01 1.60369Z" fill="white"/>
</svg>
