<svg width="423" height="109" viewBox="0 0 423 109" fill="none" xmlns="http://www.w3.org/2000/svg">
<g filter="url(#filter0_i_1435_25)">
<path d="M14.6514 0.818359C21.8165 2.81263 28.711 4.50684 32 4.50684L40.2842 0.818359H66.6309L78.5 7.01172L94.5 2.00195C98 3.67165 100.5 7.01172 102.5 7.01172C104.5 7.01172 107.167 6.17687 109.5 7.01172L115 4.50684C116.173 3.81581 118.825 2.32816 122.041 0.818359H153.874C159.124 2.71033 163.578 4.50684 165 4.50684C166.412 4.50684 169.599 2.84258 173.724 0.818359H217.218C222.114 2.82611 225.901 4.50684 227 4.50684C228.081 4.50684 231.639 2.71403 235.771 0.818359H262.404L273 4.50684L279.812 0.818359H319.616L336 4.50684L363.247 0.818359H378.623L405 7.01172L423 1.80957V101H34.3496C28.7409 96.1842 20.7093 89.2361 17.5 87.6572C7.4683 82.7221 13.0358 86.3976 4 78.0186V11.5186L9.34082 0.818359H14.6514Z" fill="#D9D9D9"/>
</g>
<line x1="39" y1="35.5" x2="389" y2="35.5" stroke="#404040" stroke-opacity="0.48"/>
<line x1="39" y1="75.5" x2="389" y2="75.5" stroke="#404040" stroke-opacity="0.48"/>
<g filter="url(#filter1_d_1435_25)">
<path d="M34.5 78.5V101C11.5 88.5 6.5 80.5 4.5 78.5H34.5Z" fill="#CDCDCD"/>
</g>
<defs>
<filter id="filter0_i_1435_25" x="4" y="0.818359" width="419" height="101.182" filterUnits="userSpaceOnUse" color-interpolation-filters="sRGB">
<feFlood flood-opacity="0" result="BackgroundImageFix"/>
<feBlend mode="normal" in="SourceGraphic" in2="BackgroundImageFix" result="shape"/>
<feColorMatrix in="SourceAlpha" type="matrix" values="0 0 0 0 0 0 0 0 0 0 0 0 0 0 0 0 0 0 127 0" result="hardAlpha"/>
<feOffset dy="1"/>
<feGaussianBlur stdDeviation="3.6"/>
<feComposite in2="hardAlpha" operator="arithmetic" k2="-1" k3="1"/>
<feColorMatrix type="matrix" values="0 0 0 0 0 0 0 0 0 0 0 0 0 0 0 0 0 0 0.15 0"/>
<feBlend mode="normal" in2="shape" result="effect1_innerShadow_1435_25"/>
</filter>
<filter id="filter1_d_1435_25" x="0.5" y="78.5" width="38" height="30.5" filterUnits="userSpaceOnUse" color-interpolation-filters="sRGB">
<feFlood flood-opacity="0" result="BackgroundImageFix"/>
<feColorMatrix in="SourceAlpha" type="matrix" values="0 0 0 0 0 0 0 0 0 0 0 0 0 0 0 0 0 0 127 0" result="hardAlpha"/>
<feOffset dy="4"/>
<feGaussianBlur stdDeviation="2"/>
<feComposite in2="hardAlpha" operator="out"/>
<feColorMatrix type="matrix" values="0 0 0 0 0 0 0 0 0 0 0 0 0 0 0 0 0 0 0.25 0"/>
<feBlend mode="normal" in2="BackgroundImageFix" result="effect1_dropShadow_1435_25"/>
<feBlend mode="normal" in="SourceGraphic" in2="effect1_dropShadow_1435_25" result="shape"/>
</filter>
</defs>
</svg>
